<?xml version="1.0" encoding="UTF-8"?>
<svg version="1.1" xmlns="http://www.w3.org/2000/svg" width="512" height="512">
<path d="M0 0 C1.01790619 0.00215515 2.03581238 0.0043103 3.08456421 0.00653076 C17.69363523 0.05620146 32.02575853 0.30709809 46.375 3.3125 C47.34985352 3.51117676 48.32470703 3.70985352 49.32910156 3.91455078 C97.7109774 14.03517194 141.69928269 35.9516877 177.375 70.3125 C178.3640332 71.26068604 178.3640332 71.26068604 179.37304688 72.22802734 C188.86130305 81.37247479 197.6012044 90.66984009 205.375 101.3125 C206.23306152 102.46355017 207.09113451 103.61459177 207.94921875 104.765625 C213.98736829 112.95680614 219.34595521 121.47054105 224.375 130.3125 C224.73948242 130.94430176 225.10396484 131.57610352 225.47949219 132.22705078 C247.08534998 169.97532572 256.85198095 212.74189997 256.6875 255.9375 C256.68534485 256.95540619 256.6831897 257.97331238 256.68096924 259.02206421 C256.63129854 273.63113523 256.38040191 287.96325853 253.375 302.3125 C253.07698486 303.77478027 253.07698486 303.77478027 252.77294922 305.26660156 C242.65232806 353.6484774 220.7358123 397.63678269 186.375 433.3125 C185.74287598 433.97185547 185.11075195 434.63121094 184.45947266 435.31054688 C175.31502521 444.79880305 166.01765991 453.5387044 155.375 461.3125 C154.22394983 462.17056152 153.07290823 463.02863451 151.921875 463.88671875 C143.73224019 469.92427396 135.22961724 475.30707302 126.375 480.3125 C125.66778809 480.7146875 124.96057617 481.116875 124.23193359 481.53125 C101.09654164 494.5566741 75.92537591 503.30551461 49.9375 508.625 C49.21860596 508.77235596 48.49971191 508.91971191 47.7590332 509.0715332 C33.08339502 511.86090125 18.55831162 512.66142619 3.64770508 512.62817383 C0.70811513 512.6250221 -2.2304558 512.64854926 -5.16992188 512.67382812 C-18.54306192 512.71848737 -31.43916711 511.51301542 -44.625 509.3125 C-46.33055054 509.03031616 -46.33055054 509.03031616 -48.07055664 508.74243164 C-91.33802759 500.97044532 -132.38793216 480.98345309 -165.625 452.3125 C-166.37007813 451.67828125 -167.11515625 451.0440625 -167.8828125 450.390625 C-181.38779833 438.57948485 -194.05918743 425.82889772 -204.625 411.3125 C-205.48149066 410.16255169 -206.33826433 409.01281411 -207.1953125 407.86328125 C-213.23534209 399.67315742 -218.61867614 391.16870382 -223.625 382.3125 C-224.0271875 381.60528809 -224.429375 380.89807617 -224.84375 380.16943359 C-237.8691741 357.03404164 -246.61801461 331.86287591 -251.9375 305.875 C-252.08485596 305.15610596 -252.23221191 304.43721191 -252.3840332 303.6965332 C-255.35789088 288.05024391 -255.99800362 272.57681954 -255.9375 256.6875 C-255.93534485 255.66959381 -255.9331897 254.65168762 -255.93096924 253.60293579 C-255.88129854 238.99386477 -255.63040191 224.66174147 -252.625 210.3125 C-252.42632324 209.33764648 -252.22764648 208.36279297 -252.02294922 207.35839844 C-241.90232806 158.9765226 -219.9858123 114.98821731 -185.625 79.3125 C-184.99287598 78.65314453 -184.36075195 77.99378906 -183.70947266 77.31445312 C-174.56502521 67.82619695 -165.26765991 59.0862956 -154.625 51.3125 C-153.47394983 50.45443848 -152.32290823 49.59636549 -151.171875 48.73828125 C-142.98224019 42.70072604 -134.47961724 37.31792698 -125.625 32.3125 C-124.91778809 31.9103125 -124.21057617 31.508125 -123.48193359 31.09375 C-100.34654164 18.0683259 -75.17537591 9.31948539 -49.1875 4 C-48.46860596 3.85264404 -47.74971191 3.70528809 -47.0090332 3.5534668 C-31.36274391 0.57960912 -15.88931954 -0.06050362 0 0 Z " fill="#E30A17" transform="translate(255.625,-0.3125)"/>
<path d="M0 0 C31.82269437 -0.90025465 63.91663462 10.06361738 87.46484375 31.71875 C89.36127837 33.51090577 91.22583605 35.32979066 93.08984375 37.15625 C93.91355469 37.94128906 94.73726562 38.72632813 95.5859375 39.53515625 C100.59464902 44.39183268 104.95841066 49.53696962 109.08984375 55.15625 C108.75984375 55.81625 108.42984375 56.47625 108.08984375 57.15625 C107.20296875 56.186875 106.31609375 55.2175 105.40234375 54.21875 C86.64140236 35.60789615 61.01139137 27.03137892 35.08984375 26.90625 C5.81894455 27.06967452 -18.86474781 37.45849806 -39.54052734 58.29858398 C-48.97568521 68.25412017 -56.042525 80.37326448 -60.91015625 93.15625 C-61.16700195 93.83010742 -61.42384766 94.50396484 -61.68847656 95.19824219 C-71.11201033 121.29139023 -66.9455075 150.52449286 -55.50390625 175.1875 C-42.98909578 199.38280023 -21.74908676 216.67122471 3.828125 225.4375 C23.37553229 231.31641949 46.74696145 231.9869048 66.08984375 225.15625 C67.33378906 224.73214844 68.57773437 224.30804688 69.859375 223.87109375 C85.2987427 218.31593703 97.52909063 209.67801238 109.08984375 198.15625 C109.08984375 202.25691999 106.97288448 204.08282975 104.40234375 207.03125 C103.90903564 207.60206299 103.41572754 208.17287598 102.9074707 208.76098633 C79.4815066 235.52356451 49.18545911 253.45300472 13.08984375 256.15625 C1.34995696 256.67353365 -10.37458633 256.54946923 -21.91015625 254.15625 C-22.60222168 254.01622559 -23.29428711 253.87620117 -24.00732422 253.73193359 C-42.57674686 249.8385406 -59.98756881 241.918084 -74.91015625 230.15625 C-75.47782715 229.71055664 -76.04549805 229.26486328 -76.63037109 228.80566406 C-102.22390316 208.47872145 -120.88545839 177.68530939 -124.68310547 144.88623047 C-125.99648515 129.09460508 -126.23097525 112.49923371 -121.91015625 97.15625 C-121.71147949 96.45032715 -121.51280273 95.7444043 -121.30810547 95.01708984 C-111.73147363 61.88266102 -90.53649488 33.42054765 -60.2421875 16.5078125 C-40.84407235 5.95063557 -22.06376796 0.88166905 0 0 Z " fill="#FEFDFD" transform="translate(222.91015625,127.84375)"/>
<path d="M0 0 C3.24605768 3.24605768 5.84290087 6.39879336 8.4375 10.125 C9.30799626 11.35979643 10.17912456 12.59414746 11.05078125 13.828125 C11.51822754 14.49134766 11.98567383 15.15457031 12.46728516 15.83789062 C15.32567155 19.87004576 18.22767913 23.87077944 21.125 27.875 C21.70564209 28.67824707 22.28628418 29.48149414 22.88452148 30.30908203 C24.25598474 32.20631756 25.62781362 34.10328744 27 36 C32.27239742 35.39610362 36.99531037 34.18914464 42.015625 32.49609375 C42.75327087 32.2533522 43.49091675 32.01061066 44.25091553 31.76051331 C46.58581533 30.9917037 48.91810181 30.21536219 51.25 29.4375 C53.59633929 28.65658942 55.94320039 27.87746485 58.29193115 27.10377502 C59.74799973 26.62401735 61.20269703 26.14007276 62.65582275 25.651474 C65.56438626 24.69209684 67.91479373 24 71 24 C69.33386404 27.68866464 67.05273074 30.86372144 64.6875 34.125 C64.26178711 34.72175537 63.83607422 35.31851074 63.39746094 35.93334961 C60.78385137 39.58504467 58.10837509 43.18011662 55.37890625 46.74609375 C54.77667236 47.5457959 54.17443848 48.34549805 53.55395508 49.16943359 C52.36432624 50.74755538 51.15995309 52.31468445 49.94018555 53.86962891 C49.39789307 54.59456543 48.85560059 55.31950195 48.296875 56.06640625 C47.80541992 56.70521729 47.31396484 57.34402832 46.80761719 58.00219727 C45.74543484 60.05069636 45.74543484 60.05069636 46.67260742 62.48193359 C47.94973068 64.90463899 49.3019722 67.03122763 50.94140625 69.22265625 C51.52132324 70.00326416 52.10124023 70.78387207 52.69873047 71.58813477 C53.31377441 72.40467529 53.92881836 73.22121582 54.5625 74.0625 C55.18785645 74.90288818 55.81321289 75.74327637 56.45751953 76.60913086 C59.25969417 80.36975447 62.08189349 84.11458589 64.92578125 87.84375 C65.34593506 88.39667725 65.76608887 88.94960449 66.19897461 89.51928711 C67.30165982 90.966261 68.41227327 92.40718335 69.5234375 93.84765625 C71 96 71 96 71 98 C65.35772658 96.91542967 59.96239607 95.40160292 54.515625 93.58203125 C53.84760864 93.3596579 53.17959229 93.13728455 52.49133301 92.90817261 C49.70061076 91.97582106 46.91170987 91.03862607 44.12744141 90.0871582 C42.07274898 89.38726818 40.01352168 88.70241394 37.953125 88.01953125 C36.73786133 87.60807861 35.52259766 87.19662598 34.27050781 86.77270508 C30.94035867 85.98590887 29.18867767 85.82081723 26 87 C24.46261165 88.35581624 24.46261165 88.35581624 23.34375 90.18359375 C22.88460205 90.85592041 22.4254541 91.52824707 21.95239258 92.22094727 C21.47310303 92.95240967 20.99381348 93.68387207 20.5 94.4375 C19.45300842 95.97736922 18.40478601 97.51640213 17.35546875 99.0546875 C16.81196777 99.8600293 16.2684668 100.66537109 15.70849609 101.49511719 C12.81570973 105.73632726 9.81576512 109.89914847 6.8125 114.0625 C6.24789062 114.85390381 5.68328125 115.64530762 5.1015625 116.46069336 C4.57949219 117.18651611 4.05742187 117.91233887 3.51953125 118.66015625 C3.05651611 119.30605713 2.59350098 119.95195801 2.11645508 120.61743164 C1.7480249 121.0736792 1.37959473 121.52992676 1 122 C0.67 122 0.34 122 0 122 C0 106.49 0 90.98 0 75 C-2.97 74.34 -5.94 73.68 -9 73 C-11.79072052 72.16684601 -14.55289632 71.31116553 -17.31640625 70.3984375 C-18.42930275 70.0364476 -18.42930275 70.0364476 -19.56468201 69.66714478 C-21.89858894 68.90701594 -24.23055512 68.1411242 -26.5625 67.375 C-28.15937958 66.85378162 -29.75638381 66.33294496 -31.35351562 65.8125 C-35.23712935 64.54606675 -39.11901564 63.27446703 -43 62 C-43 61.34 -43 60.68 -43 60 C-37.36014926 58.14297134 -31.7184509 56.29171058 -26.07495117 54.44580078 C-24.15483372 53.81685557 -22.2352334 53.18632933 -20.31616211 52.55419922 C-17.55977217 51.64656397 -14.80158063 50.74460592 -12.04296875 49.84375 C-11.18350143 49.55939087 -10.32403412 49.27503174 -9.43852234 48.98205566 C-8.63791885 48.72178589 -7.83731537 48.46151611 -7.01245117 48.19335938 C-6.3085173 47.96241577 -5.60458344 47.73147217 -4.87931824 47.49353027 C-3 47 -3 47 0 47 C0 31.49 0 15.98 0 0 Z " fill="#FEF9F9" transform="translate(371,195)"/>
</svg>
